# xmcd
#
# Track frame offsets: 
#        150
#        21869
#        36274
#        53882
#        70392
#        87776
#        105271
#        122805
#        138517
#        166430
#        184151
#        201692
#        221995
#        241552
#        259382
#        276491
#        292835
#
# Disc length: 4156 seconds
#
# Revision: 0
# Processed by: cddbd v1.5.2PL0 Copyright (c) Steve Scherf et al.
# Submitted via: ExactAudioCopyFreeDBPlugin 1.0
#
DISCID=09103a11
DTITLE=A$AP Rocky - Long. Live. ASAP (Japanese Deluxe Edition)
DYEAR=2012
DGENRE=Rap
TTITLE0=Long Live ASAP
TTITLE1=Goldie
TTITLE2=PMW (All I Really Need) Feat. Schoolboy Q
TTITLE3=LVL
TTITLE4=Hell Feat. Santigold
TTITLE5=Pain Feat. Overdoz
TTITLE6=Fuckin Problems Feat. Drake, 2 Chainz and Kendrick Lamar
TTITLE7=Wild For The Night Feat. Skrillex
TTITLE8=Train Feat. Kendrick Lamar, Joey Badass, Yelawolf, Danny Brown
TTITLE8=and Action Bronson
TTITLE9=Fasion Killa
TTITLE10=Phoenix
TTITLE11=Suddenly
TTITLE12=Jodye
TTITLE13=Ghetto Symphony Feat. Gunplay and A$AP Ferg
TTITLE14=Angels
TTITLE15=I Come Apart Feat. Florence Welch
TTITLE16=Purple Swag (Remix) Feat. Bun B, Paul Wall and Killa Kyleon
EXTD=
EXTT0=
EXTT1=
EXTT2=
EXTT3=
EXTT4=
EXTT5=
EXTT6=
EXTT7=
EXTT8=
EXTT9=
EXTT10=
EXTT11=
EXTT12=
EXTT13=
EXTT14=
EXTT15=
EXTT16=
PLAYORDER=
